<svg xmlns="http://www.w3.org/2000/svg" xmlns:xlink="http://www.w3.org/1999/xlink" width="500" zoomAndPan="magnify" viewBox="0 0 375 374.999991" height="500" preserveAspectRatio="xMidYMid meet" version="1.0"><defs><g/><clipPath id="6859778702"><path d="M 22.496094 8.855469 L 352.496094 8.855469 L 352.496094 365.855469 L 22.496094 365.855469 Z M 22.496094 8.855469 " clip-rule="nonzero"/></clipPath></defs><g clip-path="url(#6859778702)"><path fill="#ece9e4" d="M 264.808594 246.214844 C 261.269531 248.535156 257.621094 250.457031 253.871094 252.066406 C 243.144531 256.917969 231.695312 259.335938 220.054688 259.335938 C 214.589844 259.335938 209.527344 258.832031 204.765625 258.125 C 204.558594 258.429688 204.460938 258.730469 204.253906 259.03125 L 227.242188 281.035156 C 228.964844 279.929688 231.09375 279.226562 233.324219 279.226562 C 235.042969 279.226562 236.664062 279.625 238.082031 280.332031 Z M 276.660156 128.308594 C 278.683594 128.308594 280.609375 128.910156 282.226562 129.816406 L 332.246094 75.910156 L 332.046875 75.710938 L 234.835938 112.859375 C 234.738281 113.265625 234.636719 113.769531 234.53125 114.273438 C 240.507812 115.179688 246.277344 116.800781 251.851562 119.117188 C 258.328125 121.847656 264.609375 125.480469 270.378906 130.226562 C 272.203125 129.011719 274.328125 128.308594 276.660156 128.308594 Z M 285.769531 133.046875 C 286.988281 134.867188 287.699219 136.988281 287.699219 139.308594 C 287.699219 145.367188 282.734375 150.3125 276.660156 150.3125 C 270.585938 150.3125 265.722656 145.367188 265.722656 139.308594 C 265.722656 137.289062 266.230469 135.371094 267.140625 133.757812 C 261.773438 129.417969 256.003906 125.984375 249.925781 123.5625 C 244.355469 121.136719 238.386719 119.621094 232.105469 118.820312 C 230.078125 121.039062 227.144531 122.449219 223.902344 122.449219 C 220.359375 122.449219 217.21875 120.835938 215.191406 118.210938 C 196.363281 119.320312 181.574219 126.488281 171.042969 137.492188 C 163.652344 145.164062 158.386719 154.753906 155.25 165.554688 C 158.996094 167.269531 161.628906 171.105469 161.628906 175.453125 C 161.628906 181.101562 157.375 185.644531 151.90625 186.351562 C 151.90625 187.5625 151.90625 188.671875 151.90625 189.878906 C 151.90625 197.65625 153.121094 205.125 155.453125 212.195312 C 156.0625 212.09375 156.765625 211.988281 157.476562 211.988281 C 163.550781 211.988281 168.511719 216.941406 168.511719 222.996094 C 168.511719 225.921875 167.296875 228.644531 165.375 230.667969 C 167.097656 232.789062 168.921875 234.90625 171.042969 236.820312 C 175.199219 240.863281 180.15625 244.292969 185.730469 247.121094 C 187.753906 244.195312 191.09375 242.375 194.839844 242.375 C 200.914062 242.375 205.878906 247.226562 205.878906 253.277344 L 205.878906 253.382812 C 210.335938 254.085938 214.992188 254.488281 220.054688 254.488281 C 230.992188 254.488281 241.824219 252.269531 251.949219 247.730469 C 258.734375 244.699219 265.21875 240.660156 271.1875 235.613281 C 270.175781 234 269.671875 232.082031 269.671875 229.960938 C 269.671875 223.90625 274.535156 218.953125 280.609375 218.953125 C 286.679688 218.953125 291.640625 223.90625 291.640625 229.960938 C 291.640625 232.179688 290.9375 234.304688 289.820312 236.019531 L 351.585938 300.628906 C 352.5 301.636719 352.398438 303.144531 351.492188 304.058594 C 335.082031 318.695312 317.261719 330.808594 298.429688 339.996094 C 298.628906 340.804688 298.628906 341.507812 298.628906 342.316406 C 298.628906 348.371094 293.773438 353.316406 287.699219 353.316406 C 283.847656 353.316406 280.503906 351.402344 278.582031 348.476562 C 258.230469 355.839844 236.96875 359.777344 215.398438 359.777344 C 207.699219 359.777344 200.105469 359.480469 192.613281 358.871094 C 191.195312 363.214844 187.042969 366.445312 182.183594 366.445312 C 176.414062 366.445312 171.652344 361.898438 171.148438 356.25 C 159.300781 354.230469 147.65625 351.398438 136.515625 347.566406 C 134.59375 350.589844 131.148438 352.609375 127.300781 352.609375 C 121.226562 352.609375 116.367188 347.664062 116.367188 341.613281 C 116.367188 340.898438 116.367188 340.195312 116.570312 339.488281 C 102.292969 332.722656 89.230469 324.25 77.683594 313.75 C 75.457031 311.730469 73.328125 309.605469 71.207031 307.488281 C 69.683594 308.300781 67.761719 308.804688 65.839844 308.804688 C 59.761719 308.804688 54.902344 303.953125 54.902344 297.902344 C 54.902344 295.175781 55.8125 292.75 57.433594 290.832031 C 39.308594 265.191406 28.472656 231.675781 28.472656 189.175781 C 28.472656 185.644531 28.574219 182.007812 28.675781 178.476562 C 25.128906 177.265625 22.496094 173.832031 22.496094 169.792969 C 22.496094 165.253906 25.941406 161.417969 30.296875 160.8125 C 32.625 143.652344 37.078125 128.207031 43.15625 114.273438 C 40.21875 112.054688 38.195312 108.417969 38.195312 104.382812 C 38.195312 97.515625 43.765625 91.964844 50.648438 91.964844 C 52.171875 91.964844 53.585938 92.265625 54.902344 92.671875 C 61.585938 82.371094 69.484375 73.089844 78.292969 64.914062 C 100.265625 44.316406 128.011719 30.6875 157.878906 23.320312 C 157.878906 17.261719 162.84375 12.3125 168.921875 12.3125 C 173.476562 12.3125 177.425781 15.140625 179.042969 19.183594 C 190.386719 17.464844 201.933594 16.65625 213.375 16.65625 C 214.589844 16.65625 215.800781 16.65625 216.914062 16.65625 C 218.234375 12.011719 222.484375 8.582031 227.546875 8.582031 C 233.21875 8.582031 237.777344 12.820312 238.484375 18.273438 C 254.28125 20.191406 269.871094 24.128906 284.65625 29.980469 C 302.882812 37.25 319.996094 47.34375 335.082031 60.570312 C 336.804688 59.359375 338.9375 58.652344 341.257812 58.652344 C 347.339844 58.652344 352.300781 63.597656 352.300781 69.65625 C 352.300781 75.710938 347.339844 80.65625 341.257812 80.65625 C 339.234375 80.65625 337.308594 80.054688 335.691406 79.140625 Z M 330.425781 71.269531 L 330.324219 70.765625 L 273.519531 64.203125 C 272.003906 68.542969 267.847656 71.574219 263.085938 71.574219 C 261.371094 71.574219 259.851562 71.167969 258.433594 70.5625 L 232.304688 104.480469 C 233.21875 105.488281 233.828125 106.605469 234.230469 107.914062 Z M 330.828125 66.019531 C 331.132812 65.3125 331.4375 64.707031 331.742188 64.101562 C 317.160156 51.28125 300.558594 41.386719 282.941406 34.421875 C 268.457031 28.769531 253.367188 24.933594 237.976562 23.015625 C 236.761719 26.855469 233.324219 29.78125 229.171875 30.386719 L 224.109375 100.542969 C 225.726562 100.542969 227.144531 100.949219 228.5625 101.554688 L 254.585938 67.636719 C 253.0625 65.714844 252.054688 63.292969 252.054688 60.570312 C 252.054688 54.511719 257.015625 49.667969 263.085938 49.667969 C 268.757812 49.667969 273.421875 53.90625 274.023438 59.457031 Z M 224.40625 30.085938 C 222.175781 29.378906 220.253906 28.0625 218.941406 26.347656 L 182.992188 43.609375 L 216.511719 103.371094 C 217.324219 102.5625 218.234375 101.957031 219.246094 101.554688 Z M 216.816406 22.003906 C 216.816406 21.90625 216.714844 21.703125 216.714844 21.5 C 215.601562 21.5 214.488281 21.5 213.375 21.5 C 202.132812 21.5 190.996094 22.207031 179.855469 23.824219 C 179.753906 26.855469 178.335938 29.578125 176.210938 31.496094 L 180.667969 39.371094 Z M 172.058594 33.820312 C 171.042969 34.121094 170.035156 34.21875 168.921875 34.21875 C 167.296875 34.21875 165.679688 33.917969 164.261719 33.210938 L 147.550781 54.917969 L 147.757812 55.222656 L 176.3125 41.488281 Z M 160.515625 30.285156 C 159.90625 29.578125 159.296875 28.769531 158.894531 27.960938 C 129.835938 35.128906 102.898438 48.457031 81.535156 68.445312 C 73.128906 76.320312 65.535156 85.199219 58.953125 95.195312 C 59.558594 95.699219 60.167969 96.304688 60.675781 97.011719 L 128.417969 64.503906 C 128.210938 63.699219 128.113281 62.890625 128.113281 61.980469 C 128.113281 55.925781 133.074219 50.980469 139.148438 50.980469 C 140.769531 50.980469 142.390625 51.382812 143.808594 51.988281 Z M 149.882812 59.457031 C 149.984375 60.265625 150.085938 61.175781 150.085938 61.984375 C 150.085938 66.828125 146.945312 70.964844 142.59375 72.378906 L 145.226562 98.222656 C 150.996094 98.730469 155.652344 103.269531 156.363281 109.023438 L 212.964844 112.761719 C 212.867188 112.359375 212.867188 111.851562 212.867188 111.445312 C 212.867188 110.132812 213.070312 108.925781 213.476562 107.8125 L 178.742188 45.628906 Z M 137.832031 72.882812 C 134.792969 72.480469 132.265625 70.964844 130.4375 68.746094 L 62.699219 101.25 C 62.902344 101.753906 63 102.257812 63 102.867188 L 131.960938 107.410156 C 133.074219 103.269531 136.3125 99.941406 140.464844 98.726562 Z M 147.148438 185.945312 C 144.3125 185.039062 142.085938 183.019531 140.769531 180.398438 L 91.761719 192.613281 L 148.566406 216.636719 C 149.175781 215.628906 150.085938 214.816406 151 214.113281 C 148.363281 206.441406 147.046875 198.265625 147.046875 189.882812 C 147.046875 188.574219 147.148438 187.257812 147.148438 185.945312 Z M 139.550781 175.75 L 139.550781 175.453125 C 139.550781 173.9375 139.855469 172.523438 140.464844 171.210938 L 121.429688 157.679688 C 119.300781 159.699219 116.367188 161.015625 113.125 161.015625 C 106.441406 161.015625 100.976562 155.5625 100.976562 148.898438 C 100.976562 147.082031 101.378906 145.367188 102.089844 143.851562 L 59.257812 113.464844 C 58.648438 113.972656 57.9375 114.476562 57.230469 114.878906 L 82.542969 180.800781 C 86.492188 181.304688 89.734375 184.132812 90.949219 187.867188 Z M 143.199219 167.269531 C 144.3125 166.261719 145.628906 165.554688 147.148438 165.050781 L 142.898438 122.957031 C 137.023438 122.347656 132.367188 117.90625 131.65625 112.15625 L 62.699219 107.613281 C 62.496094 108.214844 62.292969 108.925781 61.988281 109.53125 L 104.820312 140.015625 C 107.050781 137.996094 109.984375 136.6875 113.125 136.6875 C 119.910156 136.6875 125.277344 142.136719 125.277344 148.898438 C 125.277344 150.613281 124.972656 152.335938 124.261719 153.84375 Z M 200.914062 262.464844 C 199.398438 263.378906 197.78125 264.082031 195.851562 264.179688 L 185.828125 345.140625 C 186.234375 345.242188 186.539062 345.347656 186.941406 345.546875 L 224.8125 297.1875 C 223.292969 295.273438 222.386719 292.851562 222.386719 290.222656 C 222.386719 288.105469 222.890625 286.191406 223.898438 284.570312 Z M 191.09375 263.675781 C 190.796875 263.472656 190.492188 263.378906 190.1875 263.273438 L 135.707031 334.542969 C 137.324219 336.457031 138.339844 338.984375 138.339844 341.613281 C 138.339844 342.117188 138.339844 342.621094 138.238281 343.128906 C 149.070312 346.757812 160.3125 349.589844 171.855469 351.503906 C 173.375 347.664062 176.917969 344.941406 181.070312 344.539062 Z M 186.433594 260.347656 C 186.035156 259.9375 185.730469 259.539062 185.425781 259.03125 L 123.046875 280.636719 C 123.148438 281.035156 123.148438 281.445312 123.148438 281.847656 C 123.148438 286.191406 120.71875 289.824219 117.074219 291.640625 L 127 330.710938 L 127.300781 330.710938 C 129.019531 330.710938 130.542969 331.007812 131.960938 331.714844 Z M 183.902344 254.59375 C 183.800781 254.191406 183.800781 253.6875 183.800781 253.277344 C 183.800781 252.675781 183.902344 252.171875 184.007812 251.5625 C 177.828125 248.53125 172.359375 244.796875 167.703125 240.355469 C 165.375 238.136719 163.246094 235.714844 161.324219 233.292969 C 160.105469 233.695312 158.792969 233.894531 157.476562 233.894531 C 152.816406 233.894531 148.769531 230.96875 147.148438 226.832031 L 114.949219 231.578125 C 114.949219 237.933594 111 243.386719 105.429688 245.808594 L 111.8125 270.945312 L 112.113281 270.945312 C 116.0625 270.945312 119.503906 272.964844 121.53125 276.089844 Z M 286.28125 239.347656 C 285.464844 239.851562 284.65625 240.257812 283.644531 240.460938 L 289.414062 331.511719 C 292.25 331.921875 294.78125 333.433594 296.402344 335.65625 C 314.027344 327.070312 330.828125 315.769531 346.425781 302.140625 Z M 278.886719 240.765625 C 277.875 240.660156 276.859375 240.355469 275.945312 239.851562 L 241.824219 283.265625 C 243.449219 285.179688 244.355469 287.601562 244.355469 290.222656 C 244.355469 292.347656 243.746094 294.261719 242.738281 295.882812 L 281.621094 333.132812 C 282.53125 332.523438 283.542969 332.121094 284.65625 331.816406 Z M 239.394531 299.417969 C 237.671875 300.523438 235.550781 301.230469 233.324219 301.230469 C 231.601562 301.230469 230.078125 300.828125 228.5625 300.121094 L 190.691406 348.476562 C 192.003906 350.085938 192.8125 352.007812 193.117188 354.125 C 200.511719 354.734375 207.902344 355.039062 215.398438 355.039062 C 236.359375 355.039062 257.015625 351.199219 276.761719 344.03125 C 276.761719 343.425781 276.660156 342.917969 276.660156 342.316406 C 276.660156 340.191406 277.269531 338.277344 278.277344 336.664062 Z M 65.839844 286.894531 C 66.746094 286.894531 67.660156 287 68.570312 287.199219 L 76.46875 271.449219 C 74.546875 269.839844 73.332031 267.3125 73.332031 264.585938 C 73.332031 261.960938 74.445312 259.640625 76.265625 257.925781 L 33.839844 178.777344 L 33.535156 178.882812 C 33.335938 182.207031 33.230469 185.742188 33.230469 189.175781 C 33.230469 230.566406 43.765625 263.074219 61.28125 287.90625 C 62.699219 287.296875 64.214844 286.894531 65.839844 286.894531 Z M 72.824219 289.316406 C 73.734375 290.125 74.546875 291.03125 75.253906 292.144531 L 101.179688 283.160156 C 101.179688 282.757812 101.074219 282.253906 101.074219 281.847656 C 101.074219 277.605469 103.605469 273.871094 107.152344 272.058594 L 100.769531 246.921875 C 100.265625 247.019531 99.761719 247.019531 99.253906 247.019531 C 97.632812 247.019531 96.011719 246.71875 94.492188 246.3125 L 88.722656 257.824219 C 90.542969 259.433594 91.761719 261.863281 91.761719 264.585938 C 91.761719 269.734375 87.609375 273.773438 82.542969 273.773438 C 81.9375 273.773438 81.332031 273.773438 80.726562 273.574219 Z M 76.773438 296.585938 C 76.875 296.988281 76.875 297.398438 76.875 297.902344 C 76.875 300.21875 76.066406 302.441406 74.851562 304.257812 C 76.773438 306.277344 78.796875 308.296875 80.925781 310.214844 C 92.0625 320.308594 104.722656 328.585938 118.492188 335.152344 C 119.503906 333.734375 120.820312 332.628906 122.339844 331.816406 L 112.417969 292.851562 L 112.113281 292.851562 C 108.167969 292.851562 104.722656 290.726562 102.800781 287.601562 Z M 146.542969 222.085938 C 146.542969 221.78125 146.542969 221.382812 146.644531 220.972656 L 89.328125 196.75 C 89.128906 196.949219 89.023438 197.148438 88.824219 197.351562 L 96.011719 216.132812 C 97.023438 215.828125 98.136719 215.722656 99.25 215.722656 C 106.339844 215.722656 112.316406 220.371094 114.238281 226.832031 Z M 84.769531 200.179688 C 83.65625 200.582031 82.542969 200.789062 81.230469 200.789062 C 75.761719 200.789062 71.207031 196.34375 71.207031 190.792969 C 71.207031 190.183594 71.304688 189.679688 71.304688 189.175781 L 39.003906 175.453125 C 38.703125 175.851562 38.398438 176.15625 37.992188 176.558594 L 80.519531 255.699219 C 81.125 255.5 81.839844 255.5 82.542969 255.5 C 83.152344 255.5 83.863281 255.5 84.371094 255.601562 L 90.242188 244.09375 C 86.1875 241.269531 83.554688 236.621094 83.554688 231.371094 C 83.554688 225.621094 86.796875 220.46875 91.554688 217.847656 Z M 73.230469 184.734375 C 74.34375 183.324219 75.863281 182.113281 77.585938 181.40625 L 52.777344 116.59375 C 52.066406 116.800781 51.355469 116.800781 50.648438 116.800781 C 49.535156 116.800781 48.523438 116.695312 47.511719 116.390625 C 41.636719 129.816406 37.382812 144.761719 35.054688 161.316406 C 38.496094 162.625 40.929688 165.960938 40.929688 169.792969 C 40.929688 170.296875 40.929688 170.707031 40.824219 171.109375 Z M 156.0625 113.769531 C 154.949219 117.90625 151.703125 121.242188 147.65625 122.453125 L 151.503906 161.214844 C 154.945312 150.917969 160.3125 141.730469 167.601562 134.164062 C 175.296875 126.082031 185.222656 119.925781 197.070312 116.496094 Z M 156.0625 113.769531 " fill-opacity="1" fill-rule="evenodd"/></g><g fill="#ffffff" fill-opacity="1"><g transform="translate(218.010929, 193.124987)"><g><path d="M 0.8125 -4.453125 C 0.875 -5.304688 1.078125 -5.929688 1.421875 -6.328125 C 1.773438 -6.734375 2.238281 -6.9375 2.8125 -6.9375 C 3.101562 -6.9375 3.367188 -6.875 3.609375 -6.75 C 3.847656 -6.625 4.128906 -6.4375 4.453125 -6.1875 C 4.722656 -6 4.929688 -5.859375 5.078125 -5.765625 C 5.234375 -5.679688 5.390625 -5.640625 5.546875 -5.640625 C 5.804688 -5.640625 6.003906 -5.738281 6.140625 -5.9375 C 6.285156 -6.144531 6.378906 -6.488281 6.421875 -6.96875 L 7.546875 -6.96875 C 7.484375 -6.113281 7.273438 -5.484375 6.921875 -5.078125 C 6.578125 -4.679688 6.117188 -4.484375 5.546875 -4.484375 C 5.265625 -4.484375 5.003906 -4.546875 4.765625 -4.671875 C 4.523438 -4.804688 4.238281 -4.992188 3.90625 -5.234375 C 3.664062 -5.421875 3.460938 -5.5625 3.296875 -5.65625 C 3.140625 -5.75 2.976562 -5.796875 2.8125 -5.796875 C 2.550781 -5.796875 2.347656 -5.691406 2.203125 -5.484375 C 2.066406 -5.273438 1.984375 -4.929688 1.953125 -4.453125 Z M 0.8125 -4.453125 "/></g></g></g></svg>